<svg width="49" height="48" viewBox="0 0 49 48" fill="none" xmlns="http://www.w3.org/2000/svg">
<path d="M9.5 44V34M9.5 14V4M4.5 9H14.5M4.5 39H14.5M26.5 6L23.0316 15.0177C22.4676 16.4842 22.1856 17.2174 21.7471 17.8342C21.3584 18.3808 20.8808 18.8584 20.3342 19.2471C19.7174 19.6856 18.9842 19.9676 17.5177 20.5316L8.5 24L17.5177 27.4684C18.9842 28.0324 19.7174 28.3144 20.3342 28.7529C20.8808 29.1416 21.3584 29.6192 21.7471 30.1658C22.1856 30.7826 22.4676 31.5158 23.0316 32.9823L26.5 42L29.9684 32.9823C30.5324 31.5158 30.8144 30.7826 31.2529 30.1658C31.6416 29.6192 32.1192 29.1416 32.6658 28.7529C33.2826 28.3144 34.0158 28.0324 35.4823 27.4684L44.5 24L35.4823 20.5316C34.0158 19.9676 33.2826 19.6856 32.6658 19.2471C32.1192 18.8584 31.6416 18.3808 31.2529 17.8342C30.8144 17.2174 30.5324 16.4842 29.9684 15.0177L26.5 6Z" stroke="white" stroke-width="4" stroke-linecap="round" stroke-linejoin="round"/>
</svg>
